<?xml version="1.0" encoding="UTF-8"?>
<svg xmlns="http://www.w3.org/2000/svg" xmlns:xlink="http://www.w3.org/1999/xlink" width="210px" height="65px" viewBox="0 0 210 65" version="1.1">
<g id="surface1">
<path style=" stroke:none;fill-rule:nonzero;fill:rgb(13.72549%,12.156863%,12.54902%);fill-opacity:1;" d="M 67.273438 45.160156 L 69.519531 40.179688 C 69.539062 40.136719 69.578125 40.101562 69.644531 40.101562 L 69.71875 40.101562 C 69.785156 40.101562 69.820312 40.136719 69.84375 40.179688 L 72.074219 45.160156 C 72.117188 45.257812 72.058594 45.355469 71.949219 45.355469 L 71.652344 45.355469 C 71.585938 45.355469 71.542969 45.3125 71.527344 45.273438 L 70.976562 44.050781 L 68.355469 44.050781 L 67.816406 45.273438 C 67.804688 45.3125 67.757812 45.355469 67.691406 45.355469 L 67.394531 45.355469 C 67.285156 45.355469 67.226562 45.257812 67.269531 45.160156 Z M 70.78125 43.59375 C 70.417969 42.785156 70.0625 41.972656 69.703125 41.164062 L 69.640625 41.164062 L 68.5625 43.59375 Z M 70.78125 43.59375 "/>
<path style=" stroke:none;fill-rule:nonzero;fill:rgb(13.72549%,12.156863%,12.54902%);fill-opacity:1;" d="M 76.496094 40.3125 C 76.496094 40.238281 76.558594 40.171875 76.636719 40.171875 L 78.550781 40.171875 C 79.4375 40.171875 80.164062 40.871094 80.164062 41.75 C 80.164062 42.429688 79.710938 43 79.070312 43.257812 L 80.082031 45.136719 C 80.136719 45.234375 80.082031 45.351562 79.957031 45.351562 L 79.582031 45.351562 C 79.515625 45.351562 79.476562 45.316406 79.460938 45.285156 L 78.476562 43.324219 L 77.066406 43.324219 L 77.066406 45.210938 C 77.066406 45.285156 77 45.351562 76.925781 45.351562 L 76.636719 45.351562 C 76.558594 45.351562 76.496094 45.285156 76.496094 45.210938 Z M 78.515625 42.835938 C 79.082031 42.835938 79.578125 42.363281 79.578125 41.753906 C 79.578125 41.191406 79.082031 40.714844 78.515625 40.714844 L 77.082031 40.714844 L 77.082031 42.835938 Z M 78.515625 42.835938 "/>
<path style=" stroke:none;fill-rule:nonzero;fill:rgb(13.72549%,12.156863%,12.54902%);fill-opacity:1;" d="M 85.730469 40.667969 L 84.445312 40.667969 C 84.363281 40.667969 84.304688 40.601562 84.304688 40.53125 L 84.304688 40.316406 C 84.304688 40.242188 84.363281 40.175781 84.445312 40.175781 L 87.574219 40.175781 C 87.65625 40.175781 87.714844 40.242188 87.714844 40.316406 L 87.714844 40.53125 C 87.714844 40.601562 87.65625 40.667969 87.574219 40.667969 L 86.289062 40.667969 L 86.289062 45.214844 C 86.289062 45.289062 86.222656 45.355469 86.148438 45.355469 L 85.871094 45.355469 C 85.796875 45.355469 85.730469 45.289062 85.730469 45.214844 Z M 85.730469 40.667969 "/>
<path style=" stroke:none;fill-rule:nonzero;fill:rgb(13.72549%,12.156863%,12.54902%);fill-opacity:1;" d="M 92.148438 40.3125 C 92.148438 40.238281 92.214844 40.171875 92.289062 40.171875 L 92.585938 40.171875 C 92.65625 40.171875 92.722656 40.238281 92.722656 40.3125 L 92.722656 45.210938 C 92.722656 45.285156 92.65625 45.351562 92.585938 45.351562 L 92.289062 45.351562 C 92.214844 45.351562 92.148438 45.285156 92.148438 45.210938 Z M 92.148438 40.3125 "/>
<path style=" stroke:none;fill-rule:nonzero;fill:rgb(13.72549%,12.156863%,12.54902%);fill-opacity:1;" d="M 97.515625 44.574219 C 97.554688 44.53125 97.589844 44.480469 97.628906 44.4375 C 97.699219 44.339844 97.78125 44.28125 97.886719 44.371094 C 97.9375 44.414062 98.476562 44.933594 99.136719 44.933594 C 99.734375 44.933594 100.125 44.554688 100.125 44.117188 C 100.125 43.605469 99.683594 43.304688 98.832031 42.949219 C 98.019531 42.589844 97.53125 42.257812 97.53125 41.414062 C 97.53125 40.914062 97.933594 40.097656 99.105469 40.097656 C 99.828125 40.097656 100.367188 40.472656 100.367188 40.472656 C 100.414062 40.496094 100.5 40.585938 100.414062 40.726562 C 100.382812 40.769531 100.351562 40.824219 100.324219 40.867188 C 100.257812 40.96875 100.183594 41 100.0625 40.933594 C 100.011719 40.902344 99.546875 40.59375 99.097656 40.59375 C 98.3125 40.59375 98.078125 41.097656 98.078125 41.410156 C 98.078125 41.90625 98.453125 42.195312 99.074219 42.453125 C 100.070312 42.859375 100.710938 43.238281 100.710938 44.09375 C 100.710938 44.863281 99.980469 45.425781 99.117188 45.425781 C 98.253906 45.425781 97.65625 44.914062 97.558594 44.824219 C 97.5 44.773438 97.425781 44.714844 97.515625 44.574219 Z M 97.515625 44.574219 "/>
<path style=" stroke:none;fill-rule:nonzero;fill:rgb(13.72549%,12.156863%,12.54902%);fill-opacity:1;" d="M 104.695312 45.160156 L 106.941406 40.179688 C 106.964844 40.136719 107.003906 40.101562 107.070312 40.101562 L 107.140625 40.101562 C 107.207031 40.101562 107.246094 40.136719 107.269531 40.179688 L 109.5 45.160156 C 109.542969 45.257812 109.484375 45.355469 109.371094 45.355469 L 109.078125 45.355469 C 109.011719 45.355469 108.964844 45.3125 108.949219 45.273438 L 108.402344 44.050781 L 105.78125 44.050781 L 105.242188 45.273438 C 105.226562 45.3125 105.183594 45.355469 105.117188 45.355469 L 104.820312 45.355469 C 104.710938 45.355469 104.652344 45.257812 104.695312 45.160156 Z M 108.207031 43.59375 C 107.84375 42.785156 107.488281 41.972656 107.125 41.164062 L 107.066406 41.164062 L 105.988281 43.59375 Z M 108.207031 43.59375 "/>
<path style=" stroke:none;fill-rule:nonzero;fill:rgb(13.72549%,12.156863%,12.54902%);fill-opacity:1;" d="M 113.921875 40.234375 C 113.921875 40.160156 113.988281 40.101562 114.0625 40.101562 L 114.246094 40.101562 L 117.578125 44.257812 L 117.59375 44.257812 L 117.59375 40.3125 C 117.59375 40.238281 117.652344 40.171875 117.730469 40.171875 L 117.992188 40.171875 C 118.0625 40.171875 118.132812 40.238281 118.132812 40.3125 L 118.132812 45.292969 C 118.132812 45.367188 118.0625 45.429688 117.992188 45.429688 L 117.859375 45.429688 L 114.46875 41.1875 L 114.460938 41.1875 L 114.460938 45.214844 C 114.460938 45.289062 114.402344 45.355469 114.320312 45.355469 L 114.0625 45.355469 C 113.988281 45.355469 113.921875 45.289062 113.921875 45.214844 Z M 113.921875 40.234375 "/>
<path style=" stroke:none;fill-rule:nonzero;fill:rgb(13.72549%,12.156863%,12.54902%);fill-opacity:1;" d="M 122.546875 45.160156 L 124.792969 40.179688 C 124.816406 40.136719 124.855469 40.101562 124.921875 40.101562 L 124.992188 40.101562 C 125.058594 40.101562 125.097656 40.136719 125.121094 40.179688 L 127.351562 45.160156 C 127.394531 45.257812 127.335938 45.355469 127.222656 45.355469 L 126.929688 45.355469 C 126.863281 45.355469 126.816406 45.3125 126.800781 45.273438 L 126.253906 44.050781 L 123.632812 44.050781 L 123.09375 45.273438 C 123.078125 45.3125 123.035156 45.355469 122.96875 45.355469 L 122.671875 45.355469 C 122.5625 45.355469 122.503906 45.257812 122.546875 45.160156 Z M 126.058594 43.59375 C 125.695312 42.785156 125.339844 41.972656 124.976562 41.164062 L 124.917969 41.164062 L 123.839844 43.59375 Z M 126.058594 43.59375 "/>
<path style=" stroke:none;fill-rule:nonzero;fill:rgb(13.72549%,12.156863%,12.54902%);fill-opacity:1;" d="M 131.773438 40.3125 C 131.773438 40.238281 131.832031 40.171875 131.914062 40.171875 L 132.203125 40.171875 C 132.277344 40.171875 132.34375 40.238281 132.34375 40.3125 L 132.34375 44.859375 L 134.46875 44.859375 C 134.550781 44.859375 134.609375 44.925781 134.609375 45 L 134.609375 45.210938 C 134.609375 45.285156 134.550781 45.351562 134.46875 45.351562 L 131.914062 45.351562 C 131.832031 45.351562 131.773438 45.285156 131.773438 45.210938 Z M 131.773438 40.3125 "/>
<path style=" stroke:none;fill-rule:nonzero;fill:rgb(13.72549%,12.156863%,12.54902%);fill-opacity:1;" d="M 146.566406 40.101562 C 147.3125 40.101562 147.855469 40.359375 148.355469 40.789062 C 148.414062 40.847656 148.421875 40.9375 148.363281 40.996094 L 148.164062 41.195312 C 148.105469 41.269531 148.042969 41.261719 147.972656 41.1875 C 147.585938 40.855469 147.0625 40.632812 146.558594 40.632812 C 145.390625 40.632812 144.5 41.617188 144.5 42.765625 C 144.5 43.910156 145.390625 44.886719 146.558594 44.886719 C 147.199219 44.886719 147.578125 44.628906 147.972656 44.332031 C 148.042969 44.273438 148.105469 44.28125 148.148438 44.308594 L 148.371094 44.507812 C 148.429688 44.554688 148.414062 44.65625 148.363281 44.710938 C 147.859375 45.199219 147.226562 45.429688 146.566406 45.429688 C 145.089844 45.429688 143.902344 44.253906 143.902344 42.769531 C 143.902344 41.289062 145.089844 40.101562 146.566406 40.101562 Z M 146.566406 40.101562 "/>
<path style=" stroke:none;fill-rule:nonzero;fill:rgb(13.72549%,12.156863%,12.54902%);fill-opacity:1;" d="M 155.371094 40.101562 C 156.847656 40.101562 158.03125 41.292969 158.03125 42.769531 C 158.03125 44.25 156.847656 45.429688 155.371094 45.429688 C 153.894531 45.429688 152.71875 44.253906 152.71875 42.769531 C 152.71875 41.289062 153.894531 40.101562 155.371094 40.101562 Z M 155.371094 44.910156 C 156.546875 44.910156 157.511719 43.949219 157.511719 42.773438 C 157.511719 41.597656 156.546875 40.617188 155.371094 40.617188 C 154.199219 40.617188 153.238281 41.59375 153.238281 42.773438 C 153.238281 43.953125 154.199219 44.910156 155.371094 44.910156 Z M 155.371094 44.910156 "/>
<path style=" stroke:none;fill-rule:nonzero;fill:rgb(13.72549%,12.156863%,12.54902%);fill-opacity:1;" d="M 165.054688 40.101562 C 166.53125 40.101562 167.714844 41.292969 167.714844 42.769531 C 167.714844 44.25 166.53125 45.429688 165.054688 45.429688 C 163.578125 45.429688 162.402344 44.253906 162.402344 42.769531 C 162.402344 41.289062 163.574219 40.101562 165.054688 40.101562 Z M 165.054688 44.910156 C 166.226562 44.910156 167.195312 43.949219 167.195312 42.773438 C 167.195312 41.597656 166.226562 40.617188 165.054688 40.617188 C 163.882812 40.617188 162.921875 41.59375 162.921875 42.773438 C 162.921875 43.953125 163.882812 44.910156 165.054688 44.910156 Z M 165.054688 44.910156 "/>
<path style=" stroke:none;fill-rule:nonzero;fill:rgb(13.72549%,12.156863%,12.54902%);fill-opacity:1;" d="M 172.464844 40.351562 C 172.464844 40.253906 172.535156 40.171875 172.640625 40.171875 L 172.851562 40.171875 C 172.949219 40.171875 173.027344 40.253906 173.027344 40.351562 L 173.027344 42.445312 L 175.332031 40.246094 C 175.363281 40.210938 175.429688 40.171875 175.472656 40.171875 L 175.835938 40.171875 C 175.96875 40.171875 176.042969 40.320312 175.925781 40.433594 L 173.589844 42.617188 L 176.035156 45.125 C 176.089844 45.175781 176.074219 45.355469 175.910156 45.355469 L 175.535156 45.355469 C 175.480469 45.355469 175.414062 45.324219 175.402344 45.300781 L 173.03125 42.820312 L 173.03125 45.175781 C 173.03125 45.273438 172.949219 45.351562 172.855469 45.351562 L 172.640625 45.351562 C 172.539062 45.351562 172.464844 45.273438 172.464844 45.175781 Z M 172.464844 40.351562 "/>
<path style=" stroke:none;fill-rule:nonzero;fill:rgb(13.72549%,12.156863%,12.54902%);fill-opacity:1;" d="M 180.609375 40.3125 C 180.609375 40.238281 180.675781 40.171875 180.75 40.171875 L 181.042969 40.171875 C 181.117188 40.171875 181.183594 40.238281 181.183594 40.3125 L 181.183594 45.210938 C 181.183594 45.285156 181.117188 45.351562 181.042969 45.351562 L 180.75 45.351562 C 180.675781 45.351562 180.609375 45.285156 180.609375 45.210938 Z M 180.609375 40.3125 "/>
<path style=" stroke:none;fill-rule:nonzero;fill:rgb(13.72549%,12.156863%,12.54902%);fill-opacity:1;" d="M 186.308594 40.3125 C 186.308594 40.238281 186.371094 40.171875 186.449219 40.171875 L 189.359375 40.171875 C 189.441406 40.171875 189.5 40.238281 189.5 40.3125 L 189.5 40.527344 C 189.5 40.601562 189.441406 40.667969 189.359375 40.667969 L 186.878906 40.667969 L 186.878906 42.472656 L 189 42.472656 C 189.070312 42.472656 189.140625 42.539062 189.140625 42.613281 L 189.140625 42.824219 C 189.140625 42.90625 189.070312 42.964844 189 42.964844 L 186.878906 42.964844 L 186.878906 44.855469 L 189.359375 44.855469 C 189.441406 44.855469 189.5 44.921875 189.5 44.992188 L 189.5 45.207031 C 189.5 45.28125 189.441406 45.347656 189.359375 45.347656 L 186.449219 45.347656 C 186.371094 45.347656 186.308594 45.28125 186.308594 45.207031 L 186.308594 40.308594 Z M 186.308594 40.3125 "/>
<path style=" stroke:none;fill-rule:nonzero;fill:rgb(13.72549%,12.156863%,12.54902%);fill-opacity:1;" d="M 193.96875 44.574219 C 194.007812 44.53125 194.042969 44.480469 194.082031 44.4375 C 194.152344 44.339844 194.238281 44.28125 194.339844 44.371094 C 194.390625 44.414062 194.929688 44.933594 195.589844 44.933594 C 196.1875 44.933594 196.578125 44.554688 196.578125 44.117188 C 196.578125 43.605469 196.136719 43.304688 195.285156 42.949219 C 194.476562 42.589844 193.988281 42.257812 193.988281 41.414062 C 193.988281 40.914062 194.386719 40.097656 195.558594 40.097656 C 196.285156 40.097656 196.820312 40.472656 196.820312 40.472656 C 196.867188 40.496094 196.957031 40.585938 196.867188 40.726562 C 196.835938 40.769531 196.804688 40.824219 196.777344 40.867188 C 196.710938 40.96875 196.636719 41 196.515625 40.933594 C 196.464844 40.902344 196 40.59375 195.550781 40.59375 C 194.765625 40.59375 194.53125 41.097656 194.53125 41.410156 C 194.53125 41.90625 194.90625 42.195312 195.527344 42.453125 C 196.523438 42.859375 197.164062 43.238281 197.164062 44.09375 C 197.164062 44.863281 196.433594 45.425781 195.570312 45.425781 C 194.707031 45.425781 194.109375 44.914062 194.011719 44.824219 C 193.953125 44.773438 193.878906 44.714844 193.96875 44.574219 Z M 193.96875 44.574219 "/>
<path style=" stroke:none;fill-rule:nonzero;fill:rgb(13.72549%,12.156863%,12.54902%);fill-opacity:1;" d="M 54.839844 32.699219 C 54.839844 23.742188 48.390625 16.257812 39.765625 14.394531 C 37.507812 13.886719 35.128906 13.800781 32.734375 14.203125 C 32.210938 14.289062 31.679688 14.109375 31.308594 13.726562 C 31.207031 13.625 31.109375 13.523438 31.007812 13.429688 C 30.648438 13.074219 30.117188 12.964844 29.648438 13.144531 C 27.203125 14.070312 24.878906 15.339844 22.804688 16.933594 C 22.707031 17.007812 22.574219 17.011719 22.472656 16.941406 C 22.359375 16.863281 22.203125 16.867188 22.089844 16.953125 L 22.074219 16.96875 C 18.011719 20.09375 14.847656 24.527344 13.695312 29.582031 C 11.820312 37.605469 15.28125 45.523438 21.503906 50.613281 C 21.871094 50.90625 22.253906 51.199219 22.636719 51.488281 C 23.234375 51.9375 24.066406 51.878906 24.601562 51.355469 C 24.648438 51.308594 24.6875 51.265625 24.722656 51.234375 C 25.417969 50.542969 26.085938 49.824219 26.726562 49.082031 C 27.355469 49.433594 28.007812 49.746094 28.683594 50.019531 C 30.957031 50.964844 33.277344 51.417969 35.546875 51.445312 C 35.554688 51.445312 35.566406 51.445312 35.582031 51.445312 C 35.589844 51.445312 35.59375 51.445312 35.601562 51.445312 C 37.046875 51.460938 38.46875 51.300781 39.847656 50.984375 C 48.433594 49.09375 54.84375 41.628906 54.84375 32.699219 Z M 22.757812 31.3125 C 22.691406 31.773438 22.660156 32.242188 22.660156 32.714844 C 22.667969 36.066406 24.394531 39.289062 26.976562 41.347656 C 27.164062 41.5 27.351562 41.648438 27.546875 41.789062 C 27.683594 41.886719 27.734375 42.070312 27.667969 42.226562 C 27.582031 42.421875 27.351562 42.503906 27.164062 42.402344 C 24.3125 40.851562 22.292969 37.828125 22.359375 34.175781 C 22.34375 33.167969 22.484375 32.207031 22.757812 31.3125 Z M 33.460938 16.917969 C 33.214844 16.355469 33.617188 15.722656 34.230469 15.71875 C 34.234375 15.71875 34.238281 15.71875 34.242188 15.71875 C 39.539062 15.734375 44.492188 18.394531 47.515625 22.632812 C 49.359375 25.269531 50.4375 28.480469 50.4375 31.949219 C 50.4375 40.570312 43.75 47.625 35.308594 48.144531 C 32.617188 48.164062 31.65625 46.316406 31.328125 45.234375 C 31.210938 44.847656 31.472656 44.460938 31.871094 44.417969 C 32.226562 44.382812 32.582031 44.328125 32.941406 44.253906 C 33.175781 44.203125 33.417969 44.191406 33.660156 44.222656 C 35.96875 44.519531 38.347656 44.277344 40.539062 43.496094 C 45.117188 41.933594 48.90625 37.675781 48.863281 32.65625 C 48.90625 27.636719 45.117188 23.382812 40.539062 21.816406 C 39.21875 21.34375 37.824219 21.070312 36.421875 20.992188 C 35.453125 20.9375 34.613281 20.28125 34.335938 19.34375 C 34.035156 18.324219 33.71875 17.511719 33.460938 16.917969 Z M 41.046875 34.117188 C 41.136719 30.710938 39.351562 27.398438 36.5625 25.507812 C 35.792969 24.984375 35.269531 24.167969 35.144531 23.242188 C 35.113281 22.976562 35.074219 22.71875 35.035156 22.476562 C 34.964844 22.019531 35.316406 21.601562 35.777344 21.601562 C 42.050781 21.425781 48.5 25.960938 48.519531 32.65625 C 48.5 39.355469 42.050781 43.890625 35.777344 43.714844 C 35.453125 43.714844 35.121094 43.699219 34.792969 43.675781 C 34.835938 43.65625 34.878906 43.640625 34.925781 43.621094 C 38.625 42.054688 41.148438 38.152344 41.046875 34.121094 Z M 32.636719 43.332031 C 31.996094 43.417969 31.519531 42.757812 31.789062 42.167969 C 31.808594 42.128906 31.828125 42.085938 31.847656 42.046875 C 31.917969 41.878906 31.96875 41.777344 31.972656 41.773438 C 34.410156 36.390625 35.285156 31.644531 35.382812 27.734375 C 35.40625 26.855469 36.425781 26.386719 37.097656 26.945312 C 39.167969 28.667969 40.515625 31.261719 40.539062 34.117188 C 40.523438 37.878906 38.070312 41.453125 34.585938 42.792969 C 33.949219 43.046875 33.304688 43.222656 32.667969 43.328125 C 32.65625 43.328125 32.644531 43.332031 32.632812 43.332031 Z M 27.949219 40.496094 C 27.902344 40.679688 27.679688 40.75 27.539062 40.625 C 25.265625 38.636719 23.742188 35.804688 23.8125 32.710938 C 23.796875 31.160156 24.140625 29.71875 24.75 28.425781 C 25.183594 27.507812 25.863281 26.734375 26.726562 26.203125 C 27.121094 25.960938 27.535156 25.746094 27.960938 25.566406 C 28.121094 25.496094 28.304688 25.589844 28.355469 25.757812 C 29.320312 29.269531 29.597656 34.09375 27.949219 40.496094 Z M 19.886719 20.96875 C 20.679688 20.003906 21.550781 19.109375 22.484375 18.28125 C 22.652344 18.132812 22.898438 18.132812 23.070312 18.277344 C 23.074219 18.277344 23.078125 18.285156 23.082031 18.285156 C 23.296875 18.457031 23.308594 18.78125 23.109375 18.96875 C 19.605469 22.269531 17.355469 26.914062 17.160156 31.78125 C 16.882812 37.683594 19.496094 43.425781 23.917969 47.140625 C 24.332031 47.488281 24.324219 48.125 23.863281 48.710938 C 23.773438 48.820312 23.636719 48.867188 23.503906 48.765625 C 18.769531 44.988281 15.339844 39.242188 15.390625 33.058594 C 15.359375 28.644531 17.089844 24.347656 19.882812 20.972656 Z M 23.941406 50.410156 C 23.746094 50.605469 23.441406 50.625 23.222656 50.460938 C 22.890625 50.207031 22.558594 49.953125 22.238281 49.703125 C 17.65625 46.007812 14.433594 40.664062 14.152344 34.683594 C 14.019531 32.40625 14.34375 30.15625 15.035156 28.019531 C 14.570312 29.652344 14.324219 31.347656 14.328125 33.054688 C 14.269531 39.539062 17.921875 45.613281 23.085938 49.3125 C 23.183594 49.382812 23.417969 49.546875 23.601562 49.679688 C 23.730469 49.765625 23.898438 49.75 24.003906 49.640625 C 24.511719 49.304688 25.007812 48.945312 25.488281 48.574219 C 25.59375 48.492188 25.722656 48.636719 25.632812 48.730469 C 25.085938 49.3125 24.523438 49.871094 23.941406 50.410156 Z M 26.089844 45.421875 C 25.847656 45.804688 25.347656 45.917969 24.976562 45.65625 C 20.417969 42.484375 17.554688 36.949219 17.960938 31.320312 C 18.121094 27.019531 20.121094 22.914062 23.234375 20.023438 C 23.234375 20.023438 23.234375 20.019531 23.234375 20.019531 C 23.234375 20.019531 23.519531 19.75 23.941406 19.398438 C 24.3125 19.09375 24.859375 19.144531 25.171875 19.511719 C 25.777344 20.234375 26.464844 21.207031 27.09375 22.460938 C 27.402344 23.078125 27.261719 23.828125 26.742188 24.28125 C 26.253906 24.699219 25.800781 25.15625 25.386719 25.640625 C 22.71875 27.472656 20.875 30.542969 20.832031 34.171875 C 20.882812 38.144531 23.082031 41.445312 26.15625 43.1875 C 26.628906 43.457031 26.808594 44.050781 26.5625 44.535156 C 26.347656 44.953125 26.171875 45.28125 26.085938 45.417969 Z M 26.089844 45.421875 "/>
<path style=" stroke:none;fill-rule:nonzero;fill:rgb(13.72549%,12.156863%,12.54902%);fill-opacity:1;" d="M 67.550781 19.929688 C 67.550781 19.746094 67.695312 19.578125 67.882812 19.578125 L 72.375 19.578125 C 75.925781 19.578125 78.835938 22.472656 78.835938 26.015625 C 78.835938 29.554688 75.925781 32.488281 72.375 32.488281 L 67.882812 32.488281 C 67.699219 32.488281 67.550781 32.320312 67.550781 32.136719 L 67.550781 19.925781 Z M 72.1875 29.757812 C 74.269531 29.757812 75.777344 28.117188 75.777344 26.015625 C 75.777344 23.914062 74.265625 22.292969 72.1875 22.292969 L 70.421875 22.292969 L 70.421875 29.761719 L 72.1875 29.761719 Z M 72.1875 29.757812 "/>
<path style=" stroke:none;fill-rule:nonzero;fill:rgb(13.72549%,12.156863%,12.54902%);fill-opacity:1;" d="M 90.925781 19.394531 C 94.605469 19.394531 97.550781 22.363281 97.550781 26.050781 C 97.550781 29.742188 94.605469 32.671875 90.925781 32.671875 C 87.242188 32.671875 84.316406 29.742188 84.316406 26.050781 C 84.316406 22.363281 87.242188 19.394531 90.925781 19.394531 Z M 90.925781 29.722656 C 92.949219 29.722656 94.605469 28.0625 94.605469 26.050781 C 94.605469 24.042969 92.949219 22.347656 90.925781 22.347656 C 88.902344 22.347656 87.261719 24.023438 87.261719 26.050781 C 87.261719 28.082031 88.917969 29.722656 90.925781 29.722656 Z M 90.925781 29.722656 "/>
<path style=" stroke:none;fill-rule:nonzero;fill:rgb(13.72549%,12.156863%,12.54902%);fill-opacity:1;" d="M 103.035156 19.929688 C 103.035156 19.746094 103.199219 19.578125 103.386719 19.578125 L 105.648438 19.578125 C 105.851562 19.578125 106 19.742188 106 19.929688 L 106 27.398438 C 106 28.6875 106.957031 29.722656 108.265625 29.722656 C 109.570312 29.722656 110.566406 28.6875 110.566406 27.398438 L 110.566406 19.929688 C 110.566406 19.746094 110.714844 19.578125 110.917969 19.578125 L 113.183594 19.578125 C 113.367188 19.578125 113.53125 19.742188 113.53125 19.929688 L 113.53125 27.546875 C 113.53125 30.347656 111.175781 32.671875 108.265625 32.671875 C 105.359375 32.671875 103.039062 30.347656 103.039062 27.546875 L 103.039062 19.929688 Z M 103.035156 19.929688 "/>
<path style=" stroke:none;fill-rule:nonzero;fill:rgb(13.72549%,12.156863%,12.54902%);fill-opacity:1;" d="M 125.621094 19.410156 C 127.167969 19.410156 128.859375 20.058594 130.113281 21.144531 C 130.277344 21.273438 130.296875 21.496094 130.148438 21.644531 L 128.691406 23.195312 C 128.546875 23.320312 128.34375 23.320312 128.195312 23.210938 C 127.496094 22.566406 126.683594 22.324219 125.785156 22.324219 C 123.777344 22.324219 122.160156 24.023438 122.160156 26.050781 C 122.160156 28.078125 123.796875 29.71875 125.804688 29.71875 C 126.335938 29.71875 126.890625 29.648438 127.441406 29.425781 L 127.441406 28.355469 L 126.28125 28.355469 C 126.082031 28.355469 125.929688 28.207031 125.929688 28.019531 L 125.929688 26.195312 C 125.929688 25.992188 126.078125 25.84375 126.28125 25.84375 L 129.980469 25.84375 C 130.164062 25.84375 130.3125 26.007812 130.3125 26.195312 L 130.332031 31.15625 C 130.332031 31.25 130.257812 31.398438 130.1875 31.453125 C 130.1875 31.453125 128.289062 32.652344 125.621094 32.652344 C 121.957031 32.652344 119.011719 29.738281 119.011719 26.050781 C 119.011719 22.363281 121.957031 19.410156 125.621094 19.410156 Z M 125.621094 19.410156 "/>
<path style=" stroke:none;fill-rule:nonzero;fill:rgb(13.72549%,12.156863%,12.54902%);fill-opacity:1;" d="M 135.816406 19.929688 C 135.816406 19.746094 135.980469 19.578125 136.164062 19.578125 L 138.355469 19.578125 C 138.558594 19.578125 138.707031 19.742188 138.707031 19.929688 L 138.707031 24.574219 L 143.972656 24.574219 L 143.972656 19.929688 C 143.972656 19.746094 144.121094 19.578125 144.324219 19.578125 L 146.515625 19.578125 C 146.699219 19.578125 146.867188 19.742188 146.867188 19.929688 L 146.867188 32.136719 C 146.867188 32.320312 146.699219 32.488281 146.515625 32.488281 L 144.324219 32.488281 C 144.121094 32.488281 143.972656 32.324219 143.972656 32.136719 L 143.972656 27.289062 L 138.707031 27.289062 L 138.707031 32.136719 C 138.707031 32.320312 138.5625 32.488281 138.355469 32.488281 L 136.164062 32.488281 C 135.984375 32.488281 135.816406 32.324219 135.816406 32.136719 Z M 135.816406 19.929688 "/>
<path style=" stroke:none;fill-rule:nonzero;fill:rgb(13.72549%,12.156863%,12.54902%);fill-opacity:1;" d="M 157.484375 19.929688 C 157.484375 19.746094 157.632812 19.578125 157.835938 19.578125 L 160.027344 19.578125 C 160.210938 19.578125 160.378906 19.742188 160.378906 19.929688 L 160.378906 29.777344 L 164.761719 29.777344 C 164.960938 29.777344 165.113281 29.941406 165.113281 30.128906 L 165.113281 32.136719 C 165.113281 32.320312 164.964844 32.488281 164.761719 32.488281 L 157.839844 32.488281 C 157.636719 32.488281 157.488281 32.324219 157.488281 32.136719 L 157.488281 19.929688 Z M 157.484375 19.929688 "/>
<path style=" stroke:none;fill-rule:nonzero;fill:rgb(13.72549%,12.156863%,12.54902%);fill-opacity:1;" d="M 170.449219 32.007812 L 176.214844 19.597656 C 176.269531 19.488281 176.394531 19.394531 176.527344 19.394531 L 176.710938 19.394531 C 176.839844 19.394531 176.96875 19.488281 177.023438 19.597656 L 182.785156 32.007812 C 182.894531 32.25 182.746094 32.488281 182.472656 32.488281 L 180.429688 32.488281 C 180.097656 32.488281 179.949219 32.378906 179.785156 32.027344 L 179.121094 30.570312 L 174.113281 30.570312 L 173.449219 32.046875 C 173.359375 32.265625 173.15625 32.488281 172.789062 32.488281 L 170.761719 32.488281 C 170.488281 32.488281 170.339844 32.25 170.449219 32.007812 Z M 178.015625 28.0625 L 176.617188 25.019531 L 176.601562 25.019531 L 175.21875 28.0625 L 178.019531 28.0625 Z M 178.015625 28.0625 "/>
<path style=" stroke:none;fill-rule:nonzero;fill:rgb(13.72549%,12.156863%,12.54902%);fill-opacity:1;" d="M 188.121094 19.929688 C 188.121094 19.746094 188.269531 19.578125 188.472656 19.578125 L 192.761719 19.578125 C 194.933594 19.578125 196.71875 21.070312 196.71875 23.007812 C 196.71875 24.425781 195.449219 25.460938 194.582031 25.921875 C 195.558594 26.328125 197.050781 27.230469 197.050781 28.929688 C 197.050781 30.996094 195.226562 32.488281 193.035156 32.488281 L 188.46875 32.488281 C 188.269531 32.488281 188.117188 32.320312 188.117188 32.136719 L 188.117188 19.925781 Z M 192.429688 24.816406 C 193.128906 24.816406 193.71875 24.226562 193.71875 23.488281 C 193.71875 22.75 193.128906 22.234375 192.429688 22.234375 L 190.996094 22.234375 L 190.996094 24.816406 Z M 192.667969 29.851562 C 193.386719 29.851562 193.992188 29.261719 193.992188 28.503906 C 193.992188 27.75 193.203125 27.214844 192.484375 27.214844 L 190.992188 27.214844 L 190.992188 29.851562 Z M 192.667969 29.851562 "/>
</g>
</svg>
